<?xml version="1.0" encoding="iso-8859-1"?>
<!-- Uploaded to: SVG Repo, www.svgrepo.com, Generator: SVG Repo Mixer Tools -->
<!DOCTYPE svg PUBLIC "-//W3C//DTD SVG 1.1//EN" "http://www.w3.org/Graphics/SVG/1.1/DTD/svg11.dtd">
<svg fill="#000000" height="800px" width="800px" version="1.1" id="Capa_1" xmlns="http://www.w3.org/2000/svg" xmlns:xlink="http://www.w3.org/1999/xlink" 
	 viewBox="0 0 339.572 339.572" xml:space="preserve">
<path d="M275.758,72.97h-41.206v51.612c0,5.523-4.477,10-10,10c-0.555,0-1.096-0.057-1.626-0.143V53.14
	c0-29.301-23.839-53.14-53.142-53.14c-29.299,0-53.136,23.838-53.136,53.14v81.299c-0.53,0.087-1.069,0.143-1.623,0.143
	c-5.523,0-10-4.477-10-10V72.97H63.814c-5.523,0-10,4.477-10,10v246.603c0,5.523,4.477,10,10,10h211.943c5.523,0,10-4.477,10-10
	V82.97C285.758,77.447,281.281,72.97,275.758,72.97z M169.783,22.5c16.896,0,30.642,13.745,30.642,30.64v19.83h-61.278V53.14
	C139.147,36.245,152.89,22.5,169.783,22.5z M214.825,226.992h-90.077c-5.523,0-10-4.477-10-10c0-5.523,4.477-10,10-10h90.077
	c5.523,0,10,4.477,10,10C224.825,222.515,220.348,226.992,214.825,226.992z"/>
</svg>